PathFileType	4	(X/Y/Z)	D:\TRACE\spot_10-12-23\spot_arm_body_motion_1_8-v60.trc
DataRate	CameraRate	NumFrames	NumMarkers	Units	OrigDataRate	OrigDataStartFrame	OrigNumFrames
100.00	100.00	      42	9	mm	100.00	2626	      7000
Frame#	Time	front left toe			Front right toe			aft left toe			aft right toe			Arm			FL body			FR body			AL Body			AR Body			
		X1	Y1	Z1	X2	Y2	Z2	X3	Y3	Z3	X4	Y4	Z4	X5	Y5	Z5	X6	Y6	Z6	X7	Y7	Z7	X8	Y8	Z8	X9	Y9	Z9	

2626	26.250	-182.93802	37.32116	-416.25308	303.62650	48.50988	-437.60736	-164.26404	10.54499	216.73984	315.77045	24.01206	146.58173	35.90084	793.42926	-724.55383	-85.20518	613.11957	-446.50281	68.62844	616.24786	-451.70264	-59.80257	549.73822	433.16037	82.04595	547.05682	430.85522	
2627	26.260	-182.11057	37.43638	-416.39697	304.60184	48.96648	-437.73926	-163.85869	10.73632	216.82126	316.71518	24.13428	146.43289	36.60351	793.88568	-724.65320	-85.52259	614.59888	-446.79764	68.20227	617.79364	-451.97455	-60.65611	550.25977	432.70258	81.24806	547.78711	430.69092	
2628	26.270	-181.17979	37.76842	-416.37363	305.74152	49.43508	-437.74167	-162.39548	10.25697	216.85744	317.46808	24.28089	146.44846	37.07423	794.39215	-724.73541	-85.63398	615.82031	-447.34286	68.28568	618.89063	-452.58884	-61.12693	550.82751	432.30173	80.60502	548.28656	430.17065	
2629	26.280	-180.14656	37.74065	-416.57620	306.47397	49.19035	-437.54749	-161.75375	10.08942	216.80887	319.22198	24.63259	146.56593	37.27209	794.76196	-724.98248	-85.64807	616.81354	-447.98868	68.90240	620.09894	-452.50140	-61.76785	551.03601	431.67105	80.19984	548.67487	429.87378	
2630	26.290	-179.38556	37.62344	-416.73312	307.21924	49.28638	-437.69980	-160.94952	9.83561	216.71758	318.93579	23.80291	146.14479	37.29919	795.01428	-725.12976	-85.33150	617.70221	-448.44806	68.45076	621.11597	-453.62537	-62.01653	551.53180	431.10461	79.74184	549.06952	429.20020	
2631	26.300	-178.31047	37.54560	-416.58136	308.40363	49.64780	-437.90561	-159.89670	9.70756	216.57379	319.96704	23.75150	146.12393	37.29456	795.21844	-725.27777	-84.99323	618.62671	-449.02994	68.73722	622.14148	-453.87686	-62.18380	552.31409	430.46506	79.81190	549.73859	428.92087	
2632	26.310	-177.43622	37.72632	-416.75934	309.45264	49.84877	-437.78497	-159.01247	9.91632	216.51476	322.03006	24.39898	146.51404	37.21165	795.30969	-725.46051	-84.74617	619.55823	-449.73645	68.93745	623.02069	-454.31903	-61.84390	552.71912	429.73932	79.71413	550.69263	428.05603	
2633	26.320	-176.45049	37.83350	-416.85117	309.95935	49.63611	-438.00177	-158.06378	10.03598	216.57069	322.29605	24.26537	146.33214	37.05788	795.38776	-725.67572	-84.41934	620.36340	-450.57071	69.37019	623.96710	-455.43549	-61.28123	553.67200	429.20251	80.26929	551.45880	427.27567	
2634	26.330	-175.59363	37.65907	-416.78400	311.23416	50.09734	-437.98495	-156.93747	9.95095	216.47298	323.51096	24.36019	145.92824	37.14371	795.38611	-725.91089	-84.09946	620.87500	-451.11581	69.73672	624.57788	-456.25104	-60.92789	554.53168	428.44235	80.93490	552.38196	426.61832	
2635	26.340	-174.91116	37.54750	-416.81760	311.90277	49.93900	-438.12497	-155.82874	9.90041	216.38150	323.93958	24.25406	145.92073	37.45504	795.30762	-726.10870	-83.79450	621.44800	-451.87274	70.00301	625.27130	-457.05728	-59.38887	555.00232	427.27917	81.82715	552.94427	425.70587	
2636	26.350	-173.84821	37.49300	-416.96793	312.79510	49.90384	-438.40897	-154.81410	9.78022	216.49048	325.87115	24.52959	146.03374	37.97516	795.15985	-726.22321	-83.28571	621.85822	-452.79785	70.48499	625.60748	-457.61398	-59.07765	555.88025	426.97894	82.60320	553.82483	424.89178	
2637	26.360	-172.90591	37.61073	-416.89850	313.57999	50.15548	-438.60205	-153.62068	9.88694	216.33656	326.10437	24.02994	145.72050	38.77111	795.19836	-726.30829	-82.80676	622.45648	-453.48758	71.01997	626.10614	-458.83429	-57.85389	556.49512	426.11801	83.76633	554.40985	423.73749	
2638	26.370	-172.19403	37.82949	-416.87796	314.25034	50.00336	-438.59442	-152.80350	10.26708	216.11363	327.13824	24.15537	145.40778	39.44254	795.31335	-726.65912	-82.16167	622.93506	-454.47485	71.66875	626.66022	-459.92960	-55.80453	557.49146	424.94299	85.53529	555.44818	423.62961	
2639	26.380	-171.16792	38.08510	-417.06323	315.71542	50.52671	-438.86469	-151.76163	10.60687	215.82916	327.86807	24.39145	144.91371	39.99622	795.70996	-727.06940	-81.33083	622.78705	-455.32535	72.45492	626.31299	-460.56229	-55.60012	558.58911	424.27451	86.47655	556.51447	422.59247	
2640	26.390	-170.16876	38.00328	-417.17346	316.58603	50.32959	-438.95563	-150.46361	10.13312	215.95645	328.89270	24.28921	144.93852	40.44373	796.66766	-727.06232	-79.98866	621.85913	-456.42252	73.86366	625.46790	-462.01224	-54.57801	560.01593	423.51804	87.19175	557.76001	421.27411	
2641	26.400	-169.07755	37.67222	-417.19620	317.49930	50.00599	-438.89655	-149.26915	9.79434	216.01563	329.96350	24.17135	144.82858	40.40588	798.03937	-726.54071	-78.40755	620.82849	-457.47009	75.22643	624.12109	-462.83282	-53.63586	561.20740	422.53766	88.00259	558.68536	420.31314	
2642	26.410	-168.14528	37.82150	-417.24252	318.47147	50.07807	-438.56827	-149.02019	10.22998	215.74384	330.58228	23.54668	144.77159	39.81084	800.01721	-725.58783	-76.79970	620.07532	-458.31577	76.78503	623.16553	-463.31491	-52.53342	562.14166	421.76340	89.29252	559.51721	419.86331	
2643	26.420	-167.10814	38.09267	-417.29099	319.16293	49.88662	-438.31320	-148.14645	10.19980	215.65511	331.50415	23.54430	144.70427	39.17723	802.16992	-724.19092	-75.17131	619.72388	-459.27933	78.62767	622.86847	-464.17542	-51.44210	562.56860	421.00345	90.69644	559.98132	419.76108	
2644	26.430	-166.10059	38.36574	-417.28809	320.48236	50.18852	-438.30017	-147.18816	10.29413	215.54918	332.57285	23.50159	144.67528	38.52297	804.57690	-723.01050	-73.61414	619.64032	-459.90210	80.26505	622.66559	-464.92606	-50.33271	562.61603	420.38696	91.87122	559.98572	419.00308	
2645	26.440	-165.17592	38.59986	-417.22372	321.72400	50.18767	-438.13721	-146.53877	10.24679	215.53850	333.88065	23.58220	144.99078	37.93422	806.29626	-721.70935	-71.93907	619.61395	-460.30334	81.67332	622.49438	-465.11057	-48.96622	562.48944	419.88058	92.53562	559.55945	417.98169	
2646	26.450	-164.19310	38.66096	-417.19791	322.34860	50.19699	-438.14432	-145.84198	10.17319	215.65460	334.70270	23.45543	144.94658	37.64957	807.64655	-720.32269	-70.47977	619.59863	-460.53857	82.92372	622.70978	-465.63470	-47.57088	561.85004	419.45807	94.16173	559.01587	417.60818	
2647	26.460	-163.21526	38.69282	-417.17062	322.92328	50.20820	-438.34790	-144.60309	9.87842	215.62445	335.84201	23.38596	144.94479	38.03978	808.43390	-719.50269	-69.07936	619.79932	-460.58517	84.07093	623.09607	-465.66302	-45.95489	561.24847	419.38989	95.82781	558.49744	417.48755	
2648	26.470	-162.28705	38.78748	-417.00864	323.74429	50.17629	-438.07922	-143.77222	10.10041	215.56467	336.63144	23.39982	145.03757	38.85667	808.72839	-718.74805	-67.97869	620.44006	-460.72870	84.83603	623.39276	-465.77582	-43.44088	560.79468	419.11298	97.73720	558.25427	417.33853	
2649	26.480	-161.55905	39.08029	-416.89679	325.07617	50.72183	-437.86560	-142.59724	10.28714	215.55835	337.28635	23.24080	144.91444	39.81900	808.65778	-718.43549	-66.90791	620.63251	-460.42569	86.17015	623.84302	-465.69006	-41.87458	560.82727	419.47394	99.59197	557.94397	417.23199	
2650	26.490	-160.82004	39.19874	-416.77161	325.65976	50.79172	-438.18561	-141.70122	10.44791	215.86578	338.18362	22.98437	144.96684	41.26500	808.09314	-718.21179	-65.84865	620.97809	-460.14853	88.17870	623.76337	-465.74667	-40.35032	560.87909	420.02167	101.96693	557.90161	418.06989	
2651	26.500	-160.05322	39.19742	-416.70538	326.32111	50.71481	-438.39899	-140.94911	10.55672	215.99161	339.21555	22.83361	145.08882	42.69350	807.18762	-718.25061	-64.66330	621.00757	-459.71069	88.60114	623.63275	-465.42178	-38.15191	560.72961	420.03186	103.44270	557.56720	417.83850	
2652	26.510	-159.10890	38.97264	-416.71674	327.14499	50.58910	-438.40527	-139.89288	10.46189	215.96301	340.47482	22.96921	145.37201	44.14863	806.51862	-718.47400	-63.25917	620.89697	-459.39212	89.94628	623.51611	-465.09277	-35.62850	560.32355	420.21448	105.27175	557.46063	417.94440	
2653	26.520	-158.21777	38.90863	-416.64700	328.00854	50.51519	-438.03021	-138.93869	10.59302	215.94382	341.18311	23.02018	145.21565	45.69337	805.73822	-718.58820	-61.91549	620.73138	-459.01660	91.52897	623.36176	-464.75125	-34.64524	560.38269	421.03769	107.23921	557.29156	418.72342	
2654	26.530	-157.41920	39.29310	-416.67578	329.16177	50.68969	-437.85391	-138.30331	10.71409	216.06194	342.07690	23.14829	145.32703	46.96551	805.25494	-719.01227	-60.05947	620.82263	-458.50491	93.27860	623.21191	-464.10880	-33.07603	560.61395	421.45074	108.78304	557.02130	418.65240	
2655	26.540	-156.70221	39.50436	-416.65869	330.04279	50.57381	-437.78146	-137.50021	10.65029	216.17804	342.77426	23.13136	145.50777	47.87779	804.94867	-719.27075	-58.12758	620.74438	-458.17279	95.07288	622.87994	-463.48233	-31.20867	560.28723	421.92987	110.56876	556.93085	419.75391	
2656	26.550	-155.76186	39.63976	-416.64679	330.83774	50.45610	-437.54102	-136.80104	10.60291	216.23981	343.45288	22.99103	145.68431	48.69661	804.70038	-719.54022	-56.12051	620.40875	-457.69571	97.07359	622.61047	-463.17401	-31.64744	561.35693	422.21381	111.61206	556.57129	420.00424	
2657	26.560	-155.04535	39.63793	-416.72134	331.58185	50.22889	-437.43906	-135.90027	10.45070	216.26942	344.02539	22.47621	145.62552	49.21958	804.50079	-719.65491	-54.01605	619.89954	-456.94611	98.85867	622.00330	-462.24908	-28.50376	559.92383	422.83261	113.45069	556.23053	421.20111	
2658	26.570	-154.01308	39.63372	-416.70093	332.45886	50.04385	-437.41016	-135.27042	10.57484	216.19899	345.15256	22.72116	145.86401	49.68182	804.45172	-719.73145	-51.73206	619.63770	-456.48676	100.44465	621.80872	-461.58771	-26.78290	559.45465	423.43915	114.55132	555.83447	421.13147	
2659	26.580	-153.17482	39.81859	-416.68494	333.05405	49.67041	-437.59668	-134.42729	10.59947	216.18864	345.92203	22.83745	146.03668	49.94719	804.59863	-719.64093	-49.51272	619.64917	-455.88013	102.33984	621.92627	-461.13379	-24.70136	559.02350	423.76660	116.59570	555.50861	422.05173	
2660	26.590	-152.43581	40.13977	-416.65518	333.96341	49.76850	-437.26331	-133.97470	10.96284	216.35570	346.64294	22.76698	145.96622	50.13858	804.84247	-719.42462	-47.35599	619.42188	-455.20786	106.56421	621.47333	-460.56229	-23.26738	558.88684	424.60391	118.20920	555.35052	422.72940	
2661	26.600	-151.53412	40.25087	-416.63318	334.48862	49.66025	-437.14511	-133.04578	10.80269	216.28777	347.40430	22.74644	146.03743	50.30367	805.03186	-719.17865	-45.21257	619.33771	-454.37875	108.41638	621.06641	-459.78680	-21.32571	558.59045	425.54916	120.32804	554.83630	423.35403	
2662	26.610	-150.88908	40.25930	-416.62863	335.59705	49.86985	-436.98868	-132.30028	10.74188	216.44838	348.32858	22.66229	146.22023	50.57302	805.05676	-718.92120	-43.09596	618.88574	-453.73114	110.77722	620.68817	-458.95273	-19.39253	558.29187	426.54587	122.44395	554.40698	424.91479	
2663	26.620	-150.20305	40.14603	-416.58743	336.25800	49.90767	-436.90714	-131.24042	10.62390	216.61728	349.04523	22.56682	146.42249	50.87437	805.09698	-718.79138	-40.99886	618.29340	-452.58121	112.69250	620.44366	-458.07733	-17.45303	557.91302	427.22018	124.19739	554.14740	425.28354	
2664	26.630	-149.54010	40.16839	-416.39322	336.88708	49.55933	-436.73257	-130.16078	10.26062	216.85315	349.40012	22.27476	146.20868	51.44114	805.23962	-718.59137	-38.96943	617.94531	-451.86053	115.06203	620.31256	-456.86743	-15.19750	557.34698	428.03360	126.63551	553.70837	426.23718	
2665	26.640	-148.92403	40.28419	-416.35214	337.49292	49.37109	-436.81750	-129.93266	11.14853	216.62848	349.95322	22.31571	146.72906	52.23667	805.30743	-718.40576	-36.74610	617.87000	-450.84906	116.94048	620.13947	-456.12271	-12.64262	557.09882	429.24289	129.01466	553.40704	427.19421	
2666	26.650	-148.10997	40.62666	-416.32660	337.82712	49.05632	-437.06708	-129.67133	11.80710	216.74092	350.72586	22.13164	146.89984	53.04485	805.32703	-718.18140	-34.65276	617.59924	-449.57837	118.98929	619.33417	-454.31223	-10.17341	556.48865	430.17386	131.63477	553.23468	428.00275	
2667	26.660	-147.29611	40.66538	-416.24768	338.64941	49.16400	-436.86533	-128.16185	11.32215	216.93518	352.07068	22.29334	146.86758	53.95162	805.27014	-717.98523	-32.43899	617.21106	-448.62616	121.22381	619.15674	-452.82791	-7.63858	556.09039	431.34219	134.01352	552.75610	429.02054	
